<?xml version="1.0" encoding="utf-8"?>
<!-- Generator: Adobe Illustrator 27.8.0, SVG Export Plug-In . SVG Version: 6.00 Build 0)  -->
<svg version="1.1" id="a" xmlns="http://www.w3.org/2000/svg" xmlns:xlink="http://www.w3.org/1999/xlink" x="0px" y="0px"
	 viewBox="0 0 400 400" style="enable-background:new 0 0 400 400;" xml:space="preserve">
<style type="text/css">
	.st0{fill:#0080C9;}
</style>
<polygon points="75.5,257.5 37.6,155.2 60.4,155.2 89.7,234.4 118.2,155.2 133.5,155.2 96.8,257.5 "/>
<path d="M145.9,155.2h21.3V218c0,11.4,1.9,18.9,5.8,22.6c3.9,3.7,8.8,5.5,15,5.5s10.8-1.8,14.4-5.5c3.6-3.6,5.4-10.7,5.4-21.1v-64.3
	h18.5v62.9c0,11.9-1.5,20.3-4.5,25.5c-3,5.1-7.3,9.2-12.9,12.1c-5.6,3-12.8,4.4-21.4,4.4s-15.8-1.4-21.9-4.1
	c-6.1-2.8-10.9-6.8-14.4-12.2s-5.3-14.1-5.3-25.9L145.9,155.2L145.9,155.2z"/>
<path class="st0" d="M255.4,232.5v2.7l0.8-0.7c-0.2-0.8-0.4-1.5-0.5-2.3L255.4,232.5L255.4,232.5z"/>
<path class="st0" d="M269.1,202.4c0-0.4,0.3-0.9,0.8-0.9c0.5,0,0.8,0.4,0.8,0.9s-0.3,0.8-0.8,0.8S269.1,202.8,269.1,202.4"/>
<path class="st0" d="M319.6,227.2c-1.2-3.4-4.5-5.6-9-5.3c-2.5-4.7-6.4-2.5-7.6-1.1c1.2,1.1,2.2,1.6,3.7,1.8v1
	c-2.8-0.1-3.7-1.2-5.6-3.3c-0.8,6.8,7.1,9.2,9.6,3.6c3.7-0.1,6,1.6,6.8,3.9c0.8,2.4,0,5-1.2,6.2c-2.3,2.7-5.9,2.7-9.1,1
	c-2-1-4.2-3.2-6.1-5.2c-2.8-3.2-4.4-4.5-6.6-5.6c-1.2-0.6-2.4-0.8-3.5-1c-0.7-0.1-1.4-0.2-2-0.2c-0.6,0-1.2,0.1-1.8,0.2
	c-4.8,0.5-9.7,2.9-15.6,3.4h-3.2c-2,1.7-3.7,3.2-5.2,4.6l-3.7,3.2c0,0,0,0,0,0.1c-1.6,1.4-2.5,2.3-2.5,2.3c0.5,3.5,0.6,5.2,0.6,8.4
	c0,2.6-0.1,3.9-0.1,5c-0.1,1.1-0.3,2-0.7,2.9c-0.2,0.8-0.9,1.5-2,1.6c-1,0.2-3.4-1.6-4.2-0.5c-0.7,0.9,0.1,3,0.8,3.6h6.7
	c0.8-1.7,1.1-2.7,1.6-3.7c0.6-0.8,1-2.1,1.5-2.8c0.5-0.8,0.9-1.9,1.1-2.7c0.1-0.8,0.5-1.6,0.6-2.1c0.5-1.2,1.1-2.4,1.6-3.1
	c0.1-0.2,0.2-0.4,0.4-0.6c0.3,0.4,0.6,0.9,0.8,1.2c1.6,2.5,2.9,4.4,5.2,5.3c0.9,0.5,1.5,0.8,1.8,1.1c0.3,0.3,0.3,1.4,0.2,2
	c0,0.9-0.4,1.7-1.2,2.1c-1.5,0.6-3.8-1.6-4.7-0.4c-0.8,0.9,0.1,2.6,0.9,3.7h6.1c1.5-2.4,2-5.6,2-8.4s0-3.5-1.7-4.2
	c-0.6-0.4-1.1-1.7-1.6-3.2c0-0.2,0-0.4,0-0.8c2.9-1,6.1-2.6,9.6-5.2c0,0.5,0,0.9,0.1,1.4c0.5,3.9,1,7.4,4,10.2
	c0.8,0.8,1.5,1.6,1.6,2c0,0.3-0.5,1.6-0.8,2.1c-0.7,1.5-2.1,2.7-3.3,2.8c-1.5,0.2-3.2-1.7-4.3-0.6c-1,1,0.4,3.2,1,3.7h6.2
	c2-3.7,4.9-6.9,5.9-8.9c0.6-1.5,0.6-2-0.6-2.5c-2-1.1-1.8-3.6-1.2-6.4c0.1-0.5,0.4-0.9,0.6-1.4c1.5,4.3,3.5,8.3,8.2,9.5
	c0.8,0.1,1.9,0.7,2,0.9c0,0.2,0,1.1-0.1,1.8c-0.2,1.4-1,2.9-2,3.7c-1.1,0.9-4-2.1-4.9-0.4c-0.7,1.4,0.5,3.2,1,3.6h6
	c1.7-3.7,3.2-7,3.6-9.4c0.5-2.8,0.5-3.8-1.7-4.3c-1.1-0.1-2-0.6-2.4-2.2c-0.8-2.8-0.7-7.6-2.8-10.8c2.4,2.8,5,4.9,7.2,6
	c5.2,2.8,10.6,1.8,13.2-1.9C320.2,232.4,320.2,229.2,319.6,227.2"/>
<path class="st0" d="M292.5,195.8c13.5-12.8,31.9-26.3,55.1-32.1C328,170.7,301,189.1,292.5,195.8 M254.1,189.3
	c2.1-23.1,12.7-40,19.8-47.8C263.6,156.6,257.7,177.6,254.1,189.3 M263.9,192.4c-0.1-0.9-0.6-1.5-1.4-1.9c1.6-3.9,3.1-6.9,6.2-11
	C265.9,185.2,264.6,189.9,263.9,192.4 M371.4,155.6c-4.6-0.6-15.1,0.6-24.2,2.6c5.6-2.8,7.2-3.3,9.3-4.5c0.6-0.3,0.9-1.1,0.9-2.4
	c0-1.4-1.2-1.6-2.7-1.4c-1.5,0.1-4.6,1.2-8.5,2.6c-7.7,3.2-18.7,8.4-31.9,17.2c-11.5,7.9-19.2,14.7-27.6,23.1
	c-2.2,2.2-4.7,5-7.3,8.1c-0.6-1-0.9-1.2-2-1c2.9-6.7,3.3-7,4.9-10.8c0.7-1.8,0.3-3.2-0.3-4c-0.9-1.6-2.2-0.5-3,0.1
	c-1.2,1.5-1.6,1.8-4.3,5.2c3.4-11.3,5.2-12.2,8.4-18.6c0.4-0.8,0.4-2.1-0.1-3.2c-0.3-0.8-0.8-1.2-1.5-0.9c-1.2,0.6-1.6,1.2-4,4.1
	c3.4-6.4,8-14,8.5-15.2c0.6-1.4,1.4-1.6-0.1-3.6c-1.1-1.7-2.1-0.5-3,0.3c-0.7,0.3-2,1.9-4.4,4.8c5-9.3,9.6-13.6,10.5-15.1
	c1.1-1.8,1.2-2.3,0.3-4.3c-0.8-1.8-2.4-1-3.2,0c-3.5,3.4-3.3,2.6-9.1,9.4c3-8,8.4-14.1,10.3-17.3c0.8-1.2,0.9-1.7,0.1-4.8
	c-0.5-1.3-1.6-1.8-2.7-1.7c-1.7,0.3-3.3,1.2-6.4,3.9c-6.4,5.8-15,14.1-22,29.1c-6.8,14.1-8.2,27.4-8.2,36.6
	c0,14.2,3.7,26.5,7.2,34.3c0-0.3,0-0.5,0-0.8c-0.2-3.8,0.4-8.2,1.1-10.4c1.4-5.7,3.3-8.7,4.9-11.2l-2.7-3.8l3.6,1.1l-2.1-4.8
	c0,0,2.7,0.3,4.8,3.1c1.3-1.2,4-2.2,6.6-0.2c1.7-0.1,2.7,0.2,3.6,0.7c1.9,1.1,1.7,3.2,1.6,3.6c-1-0.9-3.9-2.7-6.9-0.4l5.6,1.9
	l-7.1,0.6v7.4l-8.5,7.5v2.9l5.8-5.1v2.7l-10.2,9.2v2.8l12.9-11.6v0l3.2-2.9c0,0,0,0,0,0c1.9-1.6,2.7-2.4,3.8-2.9
	c1.4-0.9,1.6,0.1,1.8,1.6c0.3,1.2,1.8,2.5,4.9-0.3c9-8.1,18.5-12.5,28.6-17.4c-5.4,3.7-15.5,9.2-18.9,13c-1.5,1.7,0,5.9,2.4,4.1
	c4.3-2.8,10-3.3,12.8-3.2c1.4,0,2.8-0.9,3.6-2c0.8-1,0.8-2.1-1-2.3c9.3-2.8,11.6-3.6,19.3-4.3c2-0.1,3.3-1.2,3.6-2.9
	c0.3-1.6-0.5-2-2.4-2.3c-2.3-0.3-6.2,0.4-10.2,1c8.9-3.8,19.8-5.9,28.4-8.4c2.7-0.8,3.1-1.6,3.2-3.2c0.3-1.7-1-1.7-4.1-1.7
	c-6.2,0.3-15.5,0.9-29.6,5c13.3-6.7,20.8-9.8,32.9-12.9c3.3-0.9,3.8-1.7,4.1-3.4c0.5-1.9-1-1.9-2.1-1.7c-1.7,0.1-5.8,0-14,2.5
	c8-3.5,16.8-7.6,23.2-9.6c1.4-0.5,2.1-1.4,2.1-2.8c0-1.1-0.3-1.2-1.7-1.2c-2.7,0-7.1,0.9-12.4,2.5c10.9-4.6,14.1-6.2,21.3-7.4
	c2.4-0.6,2.8-1.4,2.9-2.8C374.4,155.6,373,155.7,371.4,155.6"/>
</svg>
